solid ASCII
  facet normal 3.225506e-17 8.944272e-01 -4.472136e-01
    outer loop
      vertex   -5.151704e+01 2.885396e+01 2.600000e+01
      vertex   -5.201704e+01 2.935396e+01 2.700000e+01
      vertex   4.699908e+01 2.885396e+01 2.600000e+01
    endloop
  endfacet
  facet normal 0.000000e+00 8.944272e-01 -4.472136e-01
    outer loop
      vertex   4.699908e+01 2.885396e+01 2.600000e+01
      vertex   -5.201704e+01 2.935396e+01 2.700000e+01
      vertex   4.749908e+01 2.935396e+01 2.700000e+01
    endloop
  endfacet
  facet normal -8.944272e-01 -2.094668e-16 -4.472136e-01
    outer loop
      vertex   -5.151704e+01 -3.182666e+01 2.600000e+01
      vertex   -5.201704e+01 -3.232666e+01 2.700000e+01
      vertex   -5.151704e+01 2.885396e+01 2.600000e+01
    endloop
  endfacet
  facet normal -8.944272e-01 -3.091062e-16 -4.472136e-01
    outer loop
      vertex   -5.151704e+01 2.885396e+01 2.600000e+01
      vertex   -5.201704e+01 -3.232666e+01 2.700000e+01
      vertex   -5.201704e+01 2.935396e+01 2.700000e+01
    endloop
  endfacet
  facet normal 0.000000e+00 -8.944272e-01 -4.472136e-01
    outer loop
      vertex   -5.151704e+01 -3.182666e+01 2.600000e+01
      vertex   4.699908e+01 -3.182666e+01 2.600000e+01
      vertex   -5.201704e+01 -3.232666e+01 2.700000e+01
    endloop
  endfacet
  facet normal 0.000000e+00 -8.944272e-01 -4.472136e-01
    outer loop
      vertex   -5.201704e+01 -3.232666e+01 2.700000e+01
      vertex   4.699908e+01 -3.182666e+01 2.600000e+01
      vertex   4.749908e+01 -3.232666e+01 2.700000e+01
    endloop
  endfacet
  facet normal 8.944272e-01 1.030354e-16 -4.472136e-01
    outer loop
      vertex   4.749908e+01 2.935396e+01 2.700000e+01
      vertex   4.749908e+01 -3.232666e+01 2.700000e+01
      vertex   4.699908e+01 2.885396e+01 2.600000e+01
    endloop
  endfacet
  facet normal 8.944272e-01 0.000000e+00 -4.472136e-01
    outer loop
      vertex   4.699908e+01 2.885396e+01 2.600000e+01
      vertex   4.749908e+01 -3.232666e+01 2.700000e+01
      vertex   4.699908e+01 -3.182666e+01 2.600000e+01
    endloop
  endfacet
  facet normal 1.000000e+00 1.151971e-16 -0.000000e+00
    outer loop
      vertex   4.749908e+01 -3.232666e+01 2.700000e+01
      vertex   4.749908e+01 2.935396e+01 2.700000e+01
      vertex   4.749908e+01 -3.232666e+01 3.100000e+01
    endloop
  endfacet
  facet normal 1.000000e+00 1.151971e-16 0.000000e+00
    outer loop
      vertex   4.749908e+01 -3.232666e+01 3.100000e+01
      vertex   4.749908e+01 2.935396e+01 2.700000e+01
      vertex   4.749908e+01 2.935396e+01 3.100000e+01
    endloop
  endfacet
  facet normal 0.000000e+00 1.000000e+00 -0.000000e+00
    outer loop
      vertex   4.749908e+01 2.935396e+01 2.700000e+01
      vertex   -5.201704e+01 2.935396e+01 2.700000e+01
      vertex   4.749908e+01 2.935396e+01 3.100000e+01
    endloop
  endfacet
  facet normal 0.000000e+00 1.000000e+00 0.000000e+00
    outer loop
      vertex   4.749908e+01 2.935396e+01 3.100000e+01
      vertex   -5.201704e+01 2.935396e+01 2.700000e+01
      vertex   -5.201704e+01 2.935396e+01 3.100000e+01
    endloop
  endfacet
  facet normal 0.000000e+00 -0.000000e+00 -1.000000e+00
    outer loop
      vertex   4.559908e+01 2.745396e+01 2.600000e+01
      vertex   4.699908e+01 -3.182666e+01 2.600000e+01
      vertex   4.559908e+01 -3.042666e+01 2.600000e+01
    endloop
  endfacet
  facet normal 0.000000e+00 -0.000000e+00 -1.000000e+00
    outer loop
      vertex   4.559908e+01 -3.042666e+01 2.600000e+01
      vertex   4.699908e+01 -3.182666e+01 2.600000e+01
      vertex   -5.151704e+01 -3.182666e+01 2.600000e+01
    endloop
  endfacet
  facet normal -0.000000e+00 0.000000e+00 -1.000000e+00
    outer loop
      vertex   4.559908e+01 -3.042666e+01 2.600000e+01
      vertex   -5.151704e+01 -3.182666e+01 2.600000e+01
      vertex   -5.011704e+01 -3.042666e+01 2.600000e+01
    endloop
  endfacet
  facet normal -0.000000e+00 0.000000e+00 -1.000000e+00
    outer loop
      vertex   -5.011704e+01 -3.042666e+01 2.600000e+01
      vertex   -5.151704e+01 -3.182666e+01 2.600000e+01
      vertex   -5.011704e+01 2.745396e+01 2.600000e+01
    endloop
  endfacet
  facet normal -0.000000e+00 0.000000e+00 -1.000000e+00
    outer loop
      vertex   -5.011704e+01 2.745396e+01 2.600000e+01
      vertex   -5.151704e+01 -3.182666e+01 2.600000e+01
      vertex   -5.151704e+01 2.885396e+01 2.600000e+01
    endloop
  endfacet
  facet normal 0.000000e+00 0.000000e+00 -1.000000e+00
    outer loop
      vertex   -5.011704e+01 2.745396e+01 2.600000e+01
      vertex   -5.151704e+01 2.885396e+01 2.600000e+01
      vertex   4.699908e+01 2.885396e+01 2.600000e+01
    endloop
  endfacet
  facet normal 0.000000e+00 0.000000e+00 -1.000000e+00
    outer loop
      vertex   4.699908e+01 -3.182666e+01 2.600000e+01
      vertex   4.559908e+01 2.745396e+01 2.600000e+01
      vertex   4.699908e+01 2.885396e+01 2.600000e+01
    endloop
  endfacet
  facet normal 0.000000e+00 0.000000e+00 -1.000000e+00
    outer loop
      vertex   4.699908e+01 2.885396e+01 2.600000e+01
      vertex   4.559908e+01 2.745396e+01 2.600000e+01
      vertex   -5.011704e+01 2.745396e+01 2.600000e+01
    endloop
  endfacet
  facet normal 0.000000e+00 0.000000e+00 -1.000000e+00
    outer loop
      vertex   4.959908e+01 -3.242666e+01 3.100000e+01
      vertex   4.749908e+01 -3.232666e+01 3.100000e+01
      vertex   4.959908e+01 2.945396e+01 3.100000e+01
    endloop
  endfacet
  facet normal 0.000000e+00 0.000000e+00 -1.000000e+00
    outer loop
      vertex   4.959908e+01 2.945396e+01 3.100000e+01
      vertex   4.749908e+01 -3.232666e+01 3.100000e+01
      vertex   4.749908e+01 2.935396e+01 3.100000e+01
    endloop
  endfacet
  facet normal -0.000000e+00 0.000000e+00 -1.000000e+00
    outer loop
      vertex   4.959908e+01 2.945396e+01 3.100000e+01
      vertex   4.749908e+01 2.935396e+01 3.100000e+01
      vertex   4.953093e+01 2.997160e+01 3.100000e+01
    endloop
  endfacet
  facet normal -0.000000e+00 0.000000e+00 -1.000000e+00
    outer loop
      vertex   4.953093e+01 2.997160e+01 3.100000e+01
      vertex   4.749908e+01 2.935396e+01 3.100000e+01
      vertex   4.933113e+01 3.045396e+01 3.100000e+01
    endloop
  endfacet
  facet normal -0.000000e+00 0.000000e+00 -1.000000e+00
    outer loop
      vertex   4.933113e+01 3.045396e+01 3.100000e+01
      vertex   4.749908e+01 2.935396e+01 3.100000e+01
      vertex   4.901329e+01 3.086817e+01 3.100000e+01
    endloop
  endfacet
  facet normal -0.000000e+00 0.000000e+00 -1.000000e+00
    outer loop
      vertex   4.901329e+01 3.086817e+01 3.100000e+01
      vertex   4.749908e+01 2.935396e+01 3.100000e+01
      vertex   4.859908e+01 3.118601e+01 3.100000e+01
    endloop
  endfacet
  facet normal -0.000000e+00 0.000000e+00 -1.000000e+00
    outer loop
      vertex   4.859908e+01 3.118601e+01 3.100000e+01
      vertex   4.749908e+01 2.935396e+01 3.100000e+01
      vertex   4.811672e+01 3.138581e+01 3.100000e+01
    endloop
  endfacet
  facet normal -0.000000e+00 0.000000e+00 -1.000000e+00
    outer loop
      vertex   4.811672e+01 3.138581e+01 3.100000e+01
      vertex   4.749908e+01 2.935396e+01 3.100000e+01
      vertex   4.759908e+01 3.145396e+01 3.100000e+01
    endloop
  endfacet
  facet normal 0.000000e+00 0.000000e+00 -1.000000e+00
    outer loop
      vertex   4.759908e+01 3.145396e+01 3.100000e+01
      vertex   4.749908e+01 2.935396e+01 3.100000e+01
      vertex   -5.201704e+01 2.935396e+01 3.100000e+01
    endloop
  endfacet
  facet normal -0.000000e+00 0.000000e+00 -1.000000e+00
    outer loop
      vertex   4.759908e+01 3.145396e+01 3.100000e+01
      vertex   -5.201704e+01 2.935396e+01 3.100000e+01
      vertex   -5.211704e+01 3.145396e+01 3.100000e+01
    endloop
  endfacet
  facet normal 0.000000e+00 -0.000000e+00 -1.000000e+00
    outer loop
      vertex   -5.211704e+01 3.145396e+01 3.100000e+01
      vertex   -5.201704e+01 2.935396e+01 3.100000e+01
      vertex   -5.263468e+01 3.138581e+01 3.100000e+01
    endloop
  endfacet
  facet normal 0.000000e+00 -0.000000e+00 -1.000000e+00
    outer loop
      vertex   -5.263468e+01 3.138581e+01 3.100000e+01
      vertex   -5.201704e+01 2.935396e+01 3.100000e+01
      vertex   -5.311704e+01 3.118601e+01 3.100000e+01
    endloop
  endfacet
  facet normal 0.000000e+00 -0.000000e+00 -1.000000e+00
    outer loop
      vertex   -5.311704e+01 3.118601e+01 3.100000e+01
      vertex   -5.201704e+01 2.935396e+01 3.100000e+01
      vertex   -5.353126e+01 3.086817e+01 3.100000e+01
    endloop
  endfacet
  facet normal 0.000000e+00 -0.000000e+00 -1.000000e+00
    outer loop
      vertex   -5.353126e+01 3.086817e+01 3.100000e+01
      vertex   -5.201704e+01 2.935396e+01 3.100000e+01
      vertex   -5.384909e+01 3.045396e+01 3.100000e+01
    endloop
  endfacet
  facet normal 0.000000e+00 -0.000000e+00 -1.000000e+00
    outer loop
      vertex   -5.384909e+01 3.045396e+01 3.100000e+01
      vertex   -5.201704e+01 2.935396e+01 3.100000e+01
      vertex   -5.404889e+01 2.997160e+01 3.100000e+01
    endloop
  endfacet
  facet normal 0.000000e+00 -0.000000e+00 -1.000000e+00
    outer loop
      vertex   -5.404889e+01 2.997160e+01 3.100000e+01
      vertex   -5.201704e+01 2.935396e+01 3.100000e+01
      vertex   -5.411704e+01 2.945396e+01 3.100000e+01
    endloop
  endfacet
  facet normal 0.000000e+00 0.000000e+00 -1.000000e+00
    outer loop
      vertex   -5.411704e+01 2.945396e+01 3.100000e+01
      vertex   -5.201704e+01 2.935396e+01 3.100000e+01
      vertex   -5.201704e+01 -3.232666e+01 3.100000e+01
    endloop
  endfacet
  facet normal 0.000000e+00 0.000000e+00 -1.000000e+00
    outer loop
      vertex   -5.411704e+01 2.945396e+01 3.100000e+01
      vertex   -5.201704e+01 -3.232666e+01 3.100000e+01
      vertex   -5.411704e+01 -3.242666e+01 3.100000e+01
    endloop
  endfacet
  facet normal 0.000000e+00 0.000000e+00 -1.000000e+00
    outer loop
      vertex   -5.411704e+01 -3.242666e+01 3.100000e+01
      vertex   -5.201704e+01 -3.232666e+01 3.100000e+01
      vertex   -5.404889e+01 -3.294430e+01 3.100000e+01
    endloop
  endfacet
  facet normal 0.000000e+00 0.000000e+00 -1.000000e+00
    outer loop
      vertex   -5.404889e+01 -3.294430e+01 3.100000e+01
      vertex   -5.201704e+01 -3.232666e+01 3.100000e+01
      vertex   -5.384909e+01 -3.342666e+01 3.100000e+01
    endloop
  endfacet
  facet normal 0.000000e+00 0.000000e+00 -1.000000e+00
    outer loop
      vertex   -5.384909e+01 -3.342666e+01 3.100000e+01
      vertex   -5.201704e+01 -3.232666e+01 3.100000e+01
      vertex   -5.353126e+01 -3.384087e+01 3.100000e+01
    endloop
  endfacet
  facet normal 0.000000e+00 0.000000e+00 -1.000000e+00
    outer loop
      vertex   -5.353126e+01 -3.384087e+01 3.100000e+01
      vertex   -5.201704e+01 -3.232666e+01 3.100000e+01
      vertex   -5.311704e+01 -3.415871e+01 3.100000e+01
    endloop
  endfacet
  facet normal 0.000000e+00 0.000000e+00 -1.000000e+00
    outer loop
      vertex   -5.311704e+01 -3.415871e+01 3.100000e+01
      vertex   -5.201704e+01 -3.232666e+01 3.100000e+01
      vertex   -5.263468e+01 -3.435851e+01 3.100000e+01
    endloop
  endfacet
  facet normal 0.000000e+00 0.000000e+00 -1.000000e+00
    outer loop
      vertex   -5.263468e+01 -3.435851e+01 3.100000e+01
      vertex   -5.201704e+01 -3.232666e+01 3.100000e+01
      vertex   -5.211704e+01 -3.442666e+01 3.100000e+01
    endloop
  endfacet
  facet normal 0.000000e+00 0.000000e+00 -1.000000e+00
    outer loop
      vertex   -5.211704e+01 -3.442666e+01 3.100000e+01
      vertex   -5.201704e+01 -3.232666e+01 3.100000e+01
      vertex   4.749908e+01 -3.232666e+01 3.100000e+01
    endloop
  endfacet
  facet normal 0.000000e+00 0.000000e+00 -1.000000e+00
    outer loop
      vertex   -5.211704e+01 -3.442666e+01 3.100000e+01
      vertex   4.749908e+01 -3.232666e+01 3.100000e+01
      vertex   4.759908e+01 -3.442666e+01 3.100000e+01
    endloop
  endfacet
  facet normal 0.000000e+00 0.000000e+00 -1.000000e+00
    outer loop
      vertex   4.759908e+01 -3.442666e+01 3.100000e+01
      vertex   4.749908e+01 -3.232666e+01 3.100000e+01
      vertex   4.811672e+01 -3.435851e+01 3.100000e+01
    endloop
  endfacet
  facet normal 0.000000e+00 0.000000e+00 -1.000000e+00
    outer loop
      vertex   4.811672e+01 -3.435851e+01 3.100000e+01
      vertex   4.749908e+01 -3.232666e+01 3.100000e+01
      vertex   4.859908e+01 -3.415871e+01 3.100000e+01
    endloop
  endfacet
  facet normal 0.000000e+00 0.000000e+00 -1.000000e+00
    outer loop
      vertex   4.859908e+01 -3.415871e+01 3.100000e+01
      vertex   4.749908e+01 -3.232666e+01 3.100000e+01
      vertex   4.901329e+01 -3.384087e+01 3.100000e+01
    endloop
  endfacet
  facet normal 0.000000e+00 0.000000e+00 -1.000000e+00
    outer loop
      vertex   4.901329e+01 -3.384087e+01 3.100000e+01
      vertex   4.749908e+01 -3.232666e+01 3.100000e+01
      vertex   4.933113e+01 -3.342666e+01 3.100000e+01
    endloop
  endfacet
  facet normal 0.000000e+00 0.000000e+00 -1.000000e+00
    outer loop
      vertex   4.933113e+01 -3.342666e+01 3.100000e+01
      vertex   4.749908e+01 -3.232666e+01 3.100000e+01
      vertex   4.953093e+01 -3.294430e+01 3.100000e+01
    endloop
  endfacet
  facet normal 0.000000e+00 0.000000e+00 -1.000000e+00
    outer loop
      vertex   4.953093e+01 -3.294430e+01 3.100000e+01
      vertex   4.749908e+01 -3.232666e+01 3.100000e+01
      vertex   4.959908e+01 -3.242666e+01 3.100000e+01
    endloop
  endfacet
  facet normal 0.000000e+00 0.000000e+00 -1.000000e+00
    outer loop
      vertex   4.559908e+01 -3.042666e+01 3.100000e+01
      vertex   -5.011704e+01 -3.042666e+01 3.100000e+01
      vertex   4.559908e+01 2.745396e+01 3.100000e+01
    endloop
  endfacet
  facet normal -0.000000e+00 0.000000e+00 -1.000000e+00
    outer loop
      vertex   4.559908e+01 2.745396e+01 3.100000e+01
      vertex   -5.011704e+01 -3.042666e+01 3.100000e+01
      vertex   -5.011704e+01 2.745396e+01 3.100000e+01
    endloop
  endfacet
  facet normal 1.305262e-01 -9.914449e-01 0.000000e+00
    outer loop
      vertex   4.759908e+01 -3.442666e+01 3.300000e+01
      vertex   4.759908e+01 -3.442666e+01 3.100000e+01
      vertex   4.811672e+01 -3.435851e+01 3.300000e+01
    endloop
  endfacet
  facet normal 1.305262e-01 -9.914449e-01 0.000000e+00
    outer loop
      vertex   4.811672e+01 -3.435851e+01 3.300000e+01
      vertex   4.759908e+01 -3.442666e+01 3.100000e+01
      vertex   4.811672e+01 -3.435851e+01 3.100000e+01
    endloop
  endfacet
  facet normal 3.826834e-01 -9.238795e-01 0.000000e+00
    outer loop
      vertex   4.811672e+01 -3.435851e+01 3.300000e+01
      vertex   4.811672e+01 -3.435851e+01 3.100000e+01
      vertex   4.859908e+01 -3.415871e+01 3.300000e+01
    endloop
  endfacet
  facet normal 3.826834e-01 -9.238795e-01 0.000000e+00
    outer loop
      vertex   4.859908e+01 -3.415871e+01 3.300000e+01
      vertex   4.811672e+01 -3.435851e+01 3.100000e+01
      vertex   4.859908e+01 -3.415871e+01 3.100000e+01
    endloop
  endfacet
  facet normal 6.087614e-01 -7.933533e-01 0.000000e+00
    outer loop
      vertex   4.859908e+01 -3.415871e+01 3.300000e+01
      vertex   4.859908e+01 -3.415871e+01 3.100000e+01
      vertex   4.901329e+01 -3.384087e+01 3.300000e+01
    endloop
  endfacet
  facet normal 6.087614e-01 -7.933533e-01 0.000000e+00
    outer loop
      vertex   4.901329e+01 -3.384087e+01 3.300000e+01
      vertex   4.859908e+01 -3.415871e+01 3.100000e+01
      vertex   4.901329e+01 -3.384087e+01 3.100000e+01
    endloop
  endfacet
  facet normal 7.933533e-01 -6.087614e-01 0.000000e+00
    outer loop
      vertex   4.901329e+01 -3.384087e+01 3.300000e+01
      vertex   4.901329e+01 -3.384087e+01 3.100000e+01
      vertex   4.933113e+01 -3.342666e+01 3.300000e+01
    endloop
  endfacet
  facet normal 7.933533e-01 -6.087614e-01 0.000000e+00
    outer loop
      vertex   4.933113e+01 -3.342666e+01 3.300000e+01
      vertex   4.901329e+01 -3.384087e+01 3.100000e+01
      vertex   4.933113e+01 -3.342666e+01 3.100000e+01
    endloop
  endfacet
  facet normal 9.238795e-01 -3.826834e-01 0.000000e+00
    outer loop
      vertex   4.933113e+01 -3.342666e+01 3.300000e+01
      vertex   4.933113e+01 -3.342666e+01 3.100000e+01
      vertex   4.953093e+01 -3.294430e+01 3.300000e+01
    endloop
  endfacet
  facet normal 9.238795e-01 -3.826834e-01 0.000000e+00
    outer loop
      vertex   4.953093e+01 -3.294430e+01 3.300000e+01
      vertex   4.933113e+01 -3.342666e+01 3.100000e+01
      vertex   4.953093e+01 -3.294430e+01 3.100000e+01
    endloop
  endfacet
  facet normal 9.914449e-01 -1.305262e-01 0.000000e+00
    outer loop
      vertex   4.953093e+01 -3.294430e+01 3.300000e+01
      vertex   4.953093e+01 -3.294430e+01 3.100000e+01
      vertex   4.959908e+01 -3.242666e+01 3.300000e+01
    endloop
  endfacet
  facet normal 9.914449e-01 -1.305262e-01 0.000000e+00
    outer loop
      vertex   4.959908e+01 -3.242666e+01 3.300000e+01
      vertex   4.953093e+01 -3.294430e+01 3.100000e+01
      vertex   4.959908e+01 -3.242666e+01 3.100000e+01
    endloop
  endfacet
  facet normal 0.000000e+00 -1.000000e+00 0.000000e+00
    outer loop
      vertex   -5.211704e+01 -3.442666e+01 3.100000e+01
      vertex   4.759908e+01 -3.442666e+01 3.100000e+01
      vertex   -5.211704e+01 -3.442666e+01 3.300000e+01
    endloop
  endfacet
  facet normal 0.000000e+00 -1.000000e+00 0.000000e+00
    outer loop
      vertex   -5.211704e+01 -3.442666e+01 3.300000e+01
      vertex   4.759908e+01 -3.442666e+01 3.100000e+01
      vertex   4.759908e+01 -3.442666e+01 3.300000e+01
    endloop
  endfacet
  facet normal -9.914449e-01 -1.305262e-01 -7.044639e-15
    outer loop
      vertex   -5.411704e+01 -3.242666e+01 3.300000e+01
      vertex   -5.411704e+01 -3.242666e+01 3.100000e+01
      vertex   -5.404889e+01 -3.294430e+01 3.300000e+01
    endloop
  endfacet
  facet normal -9.914449e-01 -1.305262e-01 -0.000000e+00
    outer loop
      vertex   -5.404889e+01 -3.294430e+01 3.300000e+01
      vertex   -5.411704e+01 -3.242666e+01 3.100000e+01
      vertex   -5.404889e+01 -3.294430e+01 3.100000e+01
    endloop
  endfacet
  facet normal -9.238795e-01 -3.826834e-01 -0.000000e+00
    outer loop
      vertex   -5.404889e+01 -3.294430e+01 3.300000e+01
      vertex   -5.404889e+01 -3.294430e+01 3.100000e+01
      vertex   -5.384909e+01 -3.342666e+01 3.300000e+01
    endloop
  endfacet
  facet normal -9.238795e-01 -3.826834e-01 -0.000000e+00
    outer loop
      vertex   -5.384909e+01 -3.342666e+01 3.300000e+01
      vertex   -5.404889e+01 -3.294430e+01 3.100000e+01
      vertex   -5.384909e+01 -3.342666e+01 3.100000e+01
    endloop
  endfacet
  facet normal -7.933533e-01 -6.087614e-01 -0.000000e+00
    outer loop
      vertex   -5.384909e+01 -3.342666e+01 3.300000e+01
      vertex   -5.384909e+01 -3.342666e+01 3.100000e+01
      vertex   -5.353126e+01 -3.384087e+01 3.300000e+01
    endloop
  endfacet
  facet normal -7.933533e-01 -6.087614e-01 -0.000000e+00
    outer loop
      vertex   -5.353126e+01 -3.384087e+01 3.300000e+01
      vertex   -5.384909e+01 -3.342666e+01 3.100000e+01
      vertex   -5.353126e+01 -3.384087e+01 3.100000e+01
    endloop
  endfacet
  facet normal -6.087614e-01 -7.933533e-01 -0.000000e+00
    outer loop
      vertex   -5.353126e+01 -3.384087e+01 3.300000e+01
      vertex   -5.353126e+01 -3.384087e+01 3.100000e+01
      vertex   -5.311704e+01 -3.415871e+01 3.300000e+01
    endloop
  endfacet
  facet normal -6.087614e-01 -7.933533e-01 -0.000000e+00
    outer loop
      vertex   -5.311704e+01 -3.415871e+01 3.300000e+01
      vertex   -5.353126e+01 -3.384087e+01 3.100000e+01
      vertex   -5.311704e+01 -3.415871e+01 3.100000e+01
    endloop
  endfacet
  facet normal -3.826834e-01 -9.238795e-01 -0.000000e+00
    outer loop
      vertex   -5.311704e+01 -3.415871e+01 3.300000e+01
      vertex   -5.311704e+01 -3.415871e+01 3.100000e+01
      vertex   -5.263468e+01 -3.435851e+01 3.300000e+01
    endloop
  endfacet
  facet normal -3.826834e-01 -9.238795e-01 -0.000000e+00
    outer loop
      vertex   -5.263468e+01 -3.435851e+01 3.300000e+01
      vertex   -5.311704e+01 -3.415871e+01 3.100000e+01
      vertex   -5.263468e+01 -3.435851e+01 3.100000e+01
    endloop
  endfacet
  facet normal -1.305262e-01 -9.914449e-01 -0.000000e+00
    outer loop
      vertex   -5.263468e+01 -3.435851e+01 3.300000e+01
      vertex   -5.263468e+01 -3.435851e+01 3.100000e+01
      vertex   -5.211704e+01 -3.442666e+01 3.300000e+01
    endloop
  endfacet
  facet normal -1.305262e-01 -9.914449e-01 -0.000000e+00
    outer loop
      vertex   -5.211704e+01 -3.442666e+01 3.300000e+01
      vertex   -5.263468e+01 -3.435851e+01 3.100000e+01
      vertex   -5.211704e+01 -3.442666e+01 3.100000e+01
    endloop
  endfacet
  facet normal -1.000000e+00 -0.000000e+00 -7.105427e-15
    outer loop
      vertex   -5.411704e+01 2.945396e+01 3.100000e+01
      vertex   -5.411704e+01 -3.242666e+01 3.100000e+01
      vertex   -5.411704e+01 2.945396e+01 3.300000e+01
    endloop
  endfacet
  facet normal -1.000000e+00 -0.000000e+00 -7.105427e-15
    outer loop
      vertex   -5.411704e+01 2.945396e+01 3.300000e+01
      vertex   -5.411704e+01 -3.242666e+01 3.100000e+01
      vertex   -5.411704e+01 -3.242666e+01 3.300000e+01
    endloop
  endfacet
  facet normal -1.305262e-01 9.914449e-01 4.637222e-16
    outer loop
      vertex   -5.211704e+01 3.145396e+01 3.300000e+01
      vertex   -5.211704e+01 3.145396e+01 3.100000e+01
      vertex   -5.263468e+01 3.138581e+01 3.300000e+01
    endloop
  endfacet
  facet normal -1.305262e-01 9.914449e-01 0.000000e+00
    outer loop
      vertex   -5.263468e+01 3.138581e+01 3.300000e+01
      vertex   -5.211704e+01 3.145396e+01 3.100000e+01
      vertex   -5.263468e+01 3.138581e+01 3.100000e+01
    endloop
  endfacet
  facet normal -3.826834e-01 9.238795e-01 0.000000e+00
    outer loop
      vertex   -5.263468e+01 3.138581e+01 3.300000e+01
      vertex   -5.263468e+01 3.138581e+01 3.100000e+01
      vertex   -5.311704e+01 3.118601e+01 3.300000e+01
    endloop
  endfacet
  facet normal -3.826834e-01 9.238795e-01 0.000000e+00
    outer loop
      vertex   -5.311704e+01 3.118601e+01 3.300000e+01
      vertex   -5.263468e+01 3.138581e+01 3.100000e+01
      vertex   -5.311704e+01 3.118601e+01 3.100000e+01
    endloop
  endfacet
  facet normal -6.087614e-01 7.933533e-01 0.000000e+00
    outer loop
      vertex   -5.311704e+01 3.118601e+01 3.300000e+01
      vertex   -5.311704e+01 3.118601e+01 3.100000e+01
      vertex   -5.353126e+01 3.086817e+01 3.300000e+01
    endloop
  endfacet
  facet normal -6.087614e-01 7.933533e-01 0.000000e+00
    outer loop
      vertex   -5.353126e+01 3.086817e+01 3.300000e+01
      vertex   -5.311704e+01 3.118601e+01 3.100000e+01
      vertex   -5.353126e+01 3.086817e+01 3.100000e+01
    endloop
  endfacet
  facet normal -7.933533e-01 6.087614e-01 0.000000e+00
    outer loop
      vertex   -5.353126e+01 3.086817e+01 3.300000e+01
      vertex   -5.353126e+01 3.086817e+01 3.100000e+01
      vertex   -5.384909e+01 3.045396e+01 3.300000e+01
    endloop
  endfacet
  facet normal -7.933533e-01 6.087614e-01 0.000000e+00
    outer loop
      vertex   -5.384909e+01 3.045396e+01 3.300000e+01
      vertex   -5.353126e+01 3.086817e+01 3.100000e+01
      vertex   -5.384909e+01 3.045396e+01 3.100000e+01
    endloop
  endfacet
  facet normal -9.238795e-01 3.826834e-01 0.000000e+00
    outer loop
      vertex   -5.384909e+01 3.045396e+01 3.300000e+01
      vertex   -5.384909e+01 3.045396e+01 3.100000e+01
      vertex   -5.404889e+01 2.997160e+01 3.300000e+01
    endloop
  endfacet
  facet normal -9.238795e-01 3.826834e-01 0.000000e+00
    outer loop
      vertex   -5.404889e+01 2.997160e+01 3.300000e+01
      vertex   -5.384909e+01 3.045396e+01 3.100000e+01
      vertex   -5.404889e+01 2.997160e+01 3.100000e+01
    endloop
  endfacet
  facet normal -9.914449e-01 1.305262e-01 0.000000e+00
    outer loop
      vertex   -5.404889e+01 2.997160e+01 3.300000e+01
      vertex   -5.404889e+01 2.997160e+01 3.100000e+01
      vertex   -5.411704e+01 2.945396e+01 3.300000e+01
    endloop
  endfacet
  facet normal -9.914449e-01 1.305262e-01 -7.044639e-15
    outer loop
      vertex   -5.411704e+01 2.945396e+01 3.300000e+01
      vertex   -5.404889e+01 2.997160e+01 3.100000e+01
      vertex   -5.411704e+01 2.945396e+01 3.100000e+01
    endloop
  endfacet
  facet normal 3.562828e-17 1.000000e+00 -1.776357e-15
    outer loop
      vertex   4.759908e+01 3.145396e+01 3.100000e+01
      vertex   -5.211704e+01 3.145396e+01 3.100000e+01
      vertex   4.759908e+01 3.145396e+01 3.300000e+01
    endloop
  endfacet
  facet normal 0.000000e+00 1.000000e+00 0.000000e+00
    outer loop
      vertex   4.759908e+01 3.145396e+01 3.300000e+01
      vertex   -5.211704e+01 3.145396e+01 3.100000e+01
      vertex   -5.211704e+01 3.145396e+01 3.300000e+01
    endloop
  endfacet
  facet normal 9.914449e-01 1.305262e-01 0.000000e+00
    outer loop
      vertex   4.959908e+01 2.945396e+01 3.300000e+01
      vertex   4.959908e+01 2.945396e+01 3.100000e+01
      vertex   4.953093e+01 2.997160e+01 3.300000e+01
    endloop
  endfacet
  facet normal 9.914449e-01 1.305262e-01 0.000000e+00
    outer loop
      vertex   4.953093e+01 2.997160e+01 3.300000e+01
      vertex   4.959908e+01 2.945396e+01 3.100000e+01
      vertex   4.953093e+01 2.997160e+01 3.100000e+01
    endloop
  endfacet
  facet normal 9.238795e-01 3.826834e-01 0.000000e+00
    outer loop
      vertex   4.953093e+01 2.997160e+01 3.300000e+01
      vertex   4.953093e+01 2.997160e+01 3.100000e+01
      vertex   4.933113e+01 3.045396e+01 3.300000e+01
    endloop
  endfacet
  facet normal 9.238795e-01 3.826834e-01 0.000000e+00
    outer loop
      vertex   4.933113e+01 3.045396e+01 3.300000e+01
      vertex   4.953093e+01 2.997160e+01 3.100000e+01
      vertex   4.933113e+01 3.045396e+01 3.100000e+01
    endloop
  endfacet
  facet normal 7.933533e-01 6.087614e-01 0.000000e+00
    outer loop
      vertex   4.933113e+01 3.045396e+01 3.300000e+01
      vertex   4.933113e+01 3.045396e+01 3.100000e+01
      vertex   4.901329e+01 3.086817e+01 3.300000e+01
    endloop
  endfacet
  facet normal 7.933533e-01 6.087614e-01 0.000000e+00
    outer loop
      vertex   4.901329e+01 3.086817e+01 3.300000e+01
      vertex   4.933113e+01 3.045396e+01 3.100000e+01
      vertex   4.901329e+01 3.086817e+01 3.100000e+01
    endloop
  endfacet
  facet normal 6.087614e-01 7.933533e-01 0.000000e+00
    outer loop
      vertex   4.901329e+01 3.086817e+01 3.300000e+01
      vertex   4.901329e+01 3.086817e+01 3.100000e+01
      vertex   4.859908e+01 3.118601e+01 3.300000e+01
    endloop
  endfacet
  facet normal 6.087614e-01 7.933533e-01 0.000000e+00
    outer loop
      vertex   4.859908e+01 3.118601e+01 3.300000e+01
      vertex   4.901329e+01 3.086817e+01 3.100000e+01
      vertex   4.859908e+01 3.118601e+01 3.100000e+01
    endloop
  endfacet
  facet normal 3.826834e-01 9.238795e-01 0.000000e+00
    outer loop
      vertex   4.859908e+01 3.118601e+01 3.300000e+01
      vertex   4.859908e+01 3.118601e+01 3.100000e+01
      vertex   4.811672e+01 3.138581e+01 3.300000e+01
    endloop
  endfacet
  facet normal 3.826834e-01 9.238795e-01 0.000000e+00
    outer loop
      vertex   4.811672e+01 3.138581e+01 3.300000e+01
      vertex   4.859908e+01 3.118601e+01 3.100000e+01
      vertex   4.811672e+01 3.138581e+01 3.100000e+01
    endloop
  endfacet
  facet normal 1.305262e-01 9.914449e-01 0.000000e+00
    outer loop
      vertex   4.811672e+01 3.138581e+01 3.300000e+01
      vertex   4.811672e+01 3.138581e+01 3.100000e+01
      vertex   4.759908e+01 3.145396e+01 3.300000e+01
    endloop
  endfacet
  facet normal 1.305262e-01 9.914449e-01 -1.761160e-15
    outer loop
      vertex   4.759908e+01 3.145396e+01 3.300000e+01
      vertex   4.811672e+01 3.138581e+01 3.100000e+01
      vertex   4.759908e+01 3.145396e+01 3.100000e+01
    endloop
  endfacet
  facet normal 1.000000e+00 0.000000e+00 0.000000e+00
    outer loop
      vertex   4.959908e+01 -3.242666e+01 3.100000e+01
      vertex   4.959908e+01 2.945396e+01 3.100000e+01
      vertex   4.959908e+01 -3.242666e+01 3.300000e+01
    endloop
  endfacet
  facet normal 1.000000e+00 -0.000000e+00 0.000000e+00
    outer loop
      vertex   4.959908e+01 -3.242666e+01 3.300000e+01
      vertex   4.959908e+01 2.945396e+01 3.100000e+01
      vertex   4.959908e+01 2.945396e+01 3.300000e+01
    endloop
  endfacet
  facet normal 0.000000e+00 0.000000e+00 1.000000e+00
    outer loop
      vertex   4.959908e+01 2.945396e+01 3.300000e+01
      vertex   -5.411704e+01 2.945396e+01 3.300000e+01
      vertex   4.959908e+01 -3.242666e+01 3.300000e+01
    endloop
  endfacet
  facet normal 0.000000e+00 0.000000e+00 1.000000e+00
    outer loop
      vertex   4.959908e+01 -3.242666e+01 3.300000e+01
      vertex   -5.411704e+01 2.945396e+01 3.300000e+01
      vertex   -5.411704e+01 -3.242666e+01 3.300000e+01
    endloop
  endfacet
  facet normal 0.000000e+00 0.000000e+00 1.000000e+00
    outer loop
      vertex   4.959908e+01 -3.242666e+01 3.300000e+01
      vertex   -5.411704e+01 -3.242666e+01 3.300000e+01
      vertex   4.759908e+01 -3.442666e+01 3.300000e+01
    endloop
  endfacet
  facet normal 0.000000e+00 0.000000e+00 1.000000e+00
    outer loop
      vertex   4.759908e+01 -3.442666e+01 3.300000e+01
      vertex   -5.411704e+01 -3.242666e+01 3.300000e+01
      vertex   -5.211704e+01 -3.442666e+01 3.300000e+01
    endloop
  endfacet
  facet normal 0.000000e+00 0.000000e+00 1.000000e+00
    outer loop
      vertex   -5.211704e+01 -3.442666e+01 3.300000e+01
      vertex   -5.411704e+01 -3.242666e+01 3.300000e+01
      vertex   -5.404889e+01 -3.294430e+01 3.300000e+01
    endloop
  endfacet
  facet normal 0.000000e+00 0.000000e+00 1.000000e+00
    outer loop
      vertex   -5.211704e+01 -3.442666e+01 3.300000e+01
      vertex   -5.404889e+01 -3.294430e+01 3.300000e+01
      vertex   -5.384909e+01 -3.342666e+01 3.300000e+01
    endloop
  endfacet
  facet normal 0.000000e+00 0.000000e+00 1.000000e+00
    outer loop
      vertex   4.953093e+01 2.997160e+01 3.300000e+01
      vertex   4.759908e+01 3.145396e+01 3.300000e+01
      vertex   4.959908e+01 2.945396e+01 3.300000e+01
    endloop
  endfacet
  facet normal 0.000000e+00 0.000000e+00 1.000000e+00
    outer loop
      vertex   4.959908e+01 2.945396e+01 3.300000e+01
      vertex   4.759908e+01 3.145396e+01 3.300000e+01
      vertex   -5.211704e+01 3.145396e+01 3.300000e+01
    endloop
  endfacet
  facet normal 0.000000e+00 0.000000e+00 1.000000e+00
    outer loop
      vertex   4.959908e+01 2.945396e+01 3.300000e+01
      vertex   -5.211704e+01 3.145396e+01 3.300000e+01
      vertex   -5.411704e+01 2.945396e+01 3.300000e+01
    endloop
  endfacet
  facet normal 0.000000e+00 0.000000e+00 1.000000e+00
    outer loop
      vertex   -5.411704e+01 2.945396e+01 3.300000e+01
      vertex   -5.211704e+01 3.145396e+01 3.300000e+01
      vertex   -5.404889e+01 2.997160e+01 3.300000e+01
    endloop
  endfacet
  facet normal 0.000000e+00 0.000000e+00 1.000000e+00
    outer loop
      vertex   -5.404889e+01 2.997160e+01 3.300000e+01
      vertex   -5.211704e+01 3.145396e+01 3.300000e+01
      vertex   -5.384909e+01 3.045396e+01 3.300000e+01
    endloop
  endfacet
  facet normal 0.000000e+00 0.000000e+00 1.000000e+00
    outer loop
      vertex   -5.384909e+01 3.045396e+01 3.300000e+01
      vertex   -5.211704e+01 3.145396e+01 3.300000e+01
      vertex   -5.353126e+01 3.086817e+01 3.300000e+01
    endloop
  endfacet
  facet normal 0.000000e+00 0.000000e+00 1.000000e+00
    outer loop
      vertex   -5.353126e+01 3.086817e+01 3.300000e+01
      vertex   -5.211704e+01 3.145396e+01 3.300000e+01
      vertex   -5.311704e+01 3.118601e+01 3.300000e+01
    endloop
  endfacet
  facet normal 0.000000e+00 0.000000e+00 1.000000e+00
    outer loop
      vertex   -5.311704e+01 3.118601e+01 3.300000e+01
      vertex   -5.211704e+01 3.145396e+01 3.300000e+01
      vertex   -5.263468e+01 3.138581e+01 3.300000e+01
    endloop
  endfacet
  facet normal 0.000000e+00 0.000000e+00 1.000000e+00
    outer loop
      vertex   4.953093e+01 2.997160e+01 3.300000e+01
      vertex   4.933113e+01 3.045396e+01 3.300000e+01
      vertex   4.759908e+01 3.145396e+01 3.300000e+01
    endloop
  endfacet
  facet normal 0.000000e+00 0.000000e+00 1.000000e+00
    outer loop
      vertex   4.759908e+01 3.145396e+01 3.300000e+01
      vertex   4.933113e+01 3.045396e+01 3.300000e+01
      vertex   4.901329e+01 3.086817e+01 3.300000e+01
    endloop
  endfacet
  facet normal 0.000000e+00 0.000000e+00 1.000000e+00
    outer loop
      vertex   4.759908e+01 3.145396e+01 3.300000e+01
      vertex   4.901329e+01 3.086817e+01 3.300000e+01
      vertex   4.859908e+01 3.118601e+01 3.300000e+01
    endloop
  endfacet
  facet normal 0.000000e+00 0.000000e+00 1.000000e+00
    outer loop
      vertex   4.859908e+01 3.118601e+01 3.300000e+01
      vertex   4.811672e+01 3.138581e+01 3.300000e+01
      vertex   4.759908e+01 3.145396e+01 3.300000e+01
    endloop
  endfacet
  facet normal 0.000000e+00 0.000000e+00 1.000000e+00
    outer loop
      vertex   -5.384909e+01 -3.342666e+01 3.300000e+01
      vertex   -5.353126e+01 -3.384087e+01 3.300000e+01
      vertex   -5.211704e+01 -3.442666e+01 3.300000e+01
    endloop
  endfacet
  facet normal 0.000000e+00 0.000000e+00 1.000000e+00
    outer loop
      vertex   -5.211704e+01 -3.442666e+01 3.300000e+01
      vertex   -5.353126e+01 -3.384087e+01 3.300000e+01
      vertex   -5.311704e+01 -3.415871e+01 3.300000e+01
    endloop
  endfacet
  facet normal 0.000000e+00 0.000000e+00 1.000000e+00
    outer loop
      vertex   -5.211704e+01 -3.442666e+01 3.300000e+01
      vertex   -5.311704e+01 -3.415871e+01 3.300000e+01
      vertex   -5.263468e+01 -3.435851e+01 3.300000e+01
    endloop
  endfacet
  facet normal 0.000000e+00 -0.000000e+00 1.000000e+00
    outer loop
      vertex   4.811672e+01 -3.435851e+01 3.300000e+01
      vertex   4.859908e+01 -3.415871e+01 3.300000e+01
      vertex   4.759908e+01 -3.442666e+01 3.300000e+01
    endloop
  endfacet
  facet normal 0.000000e+00 0.000000e+00 1.000000e+00
    outer loop
      vertex   4.759908e+01 -3.442666e+01 3.300000e+01
      vertex   4.859908e+01 -3.415871e+01 3.300000e+01
      vertex   4.901329e+01 -3.384087e+01 3.300000e+01
    endloop
  endfacet
  facet normal 0.000000e+00 0.000000e+00 1.000000e+00
    outer loop
      vertex   4.759908e+01 -3.442666e+01 3.300000e+01
      vertex   4.901329e+01 -3.384087e+01 3.300000e+01
      vertex   4.933113e+01 -3.342666e+01 3.300000e+01
    endloop
  endfacet
  facet normal 0.000000e+00 -0.000000e+00 1.000000e+00
    outer loop
      vertex   4.933113e+01 -3.342666e+01 3.300000e+01
      vertex   4.953093e+01 -3.294430e+01 3.300000e+01
      vertex   4.759908e+01 -3.442666e+01 3.300000e+01
    endloop
  endfacet
  facet normal 0.000000e+00 0.000000e+00 1.000000e+00
    outer loop
      vertex   4.759908e+01 -3.442666e+01 3.300000e+01
      vertex   4.953093e+01 -3.294430e+01 3.300000e+01
      vertex   4.959908e+01 -3.242666e+01 3.300000e+01
    endloop
  endfacet
  facet normal -0.000000e+00 1.000000e+00 0.000000e+00
    outer loop
      vertex   -5.011704e+01 -3.042666e+01 3.100000e+01
      vertex   4.559908e+01 -3.042666e+01 3.100000e+01
      vertex   -5.011704e+01 -3.042666e+01 2.600000e+01
    endloop
  endfacet
  facet normal 0.000000e+00 1.000000e+00 0.000000e+00
    outer loop
      vertex   -5.011704e+01 -3.042666e+01 2.600000e+01
      vertex   4.559908e+01 -3.042666e+01 3.100000e+01
      vertex   4.559908e+01 -3.042666e+01 2.600000e+01
    endloop
  endfacet
  facet normal 1.000000e+00 0.000000e+00 0.000000e+00
    outer loop
      vertex   -5.011704e+01 2.745396e+01 3.100000e+01
      vertex   -5.011704e+01 -3.042666e+01 3.100000e+01
      vertex   -5.011704e+01 2.745396e+01 2.600000e+01
    endloop
  endfacet
  facet normal 1.000000e+00 0.000000e+00 0.000000e+00
    outer loop
      vertex   -5.011704e+01 2.745396e+01 2.600000e+01
      vertex   -5.011704e+01 -3.042666e+01 3.100000e+01
      vertex   -5.011704e+01 -3.042666e+01 2.600000e+01
    endloop
  endfacet
  facet normal -0.000000e+00 -1.000000e+00 -0.000000e+00
    outer loop
      vertex   4.559908e+01 2.745396e+01 3.100000e+01
      vertex   -5.011704e+01 2.745396e+01 3.100000e+01
      vertex   4.559908e+01 2.745396e+01 2.600000e+01
    endloop
  endfacet
  facet normal 0.000000e+00 -1.000000e+00 0.000000e+00
    outer loop
      vertex   4.559908e+01 2.745396e+01 2.600000e+01
      vertex   -5.011704e+01 2.745396e+01 3.100000e+01
      vertex   -5.011704e+01 2.745396e+01 2.600000e+01
    endloop
  endfacet
  facet normal -1.000000e+00 3.682801e-16 0.000000e+00
    outer loop
      vertex   4.559908e+01 -3.042666e+01 3.100000e+01
      vertex   4.559908e+01 2.745396e+01 3.100000e+01
      vertex   4.559908e+01 -3.042666e+01 2.600000e+01
    endloop
  endfacet
  facet normal -1.000000e+00 3.682801e-16 0.000000e+00
    outer loop
      vertex   4.559908e+01 -3.042666e+01 2.600000e+01
      vertex   4.559908e+01 2.745396e+01 3.100000e+01
      vertex   4.559908e+01 2.745396e+01 2.600000e+01
    endloop
  endfacet
  facet normal 0.000000e+00 -1.000000e+00 0.000000e+00
    outer loop
      vertex   -5.201704e+01 -3.232666e+01 2.700000e+01
      vertex   4.749908e+01 -3.232666e+01 2.700000e+01
      vertex   -5.201704e+01 -3.232666e+01 3.100000e+01
    endloop
  endfacet
  facet normal 0.000000e+00 -1.000000e+00 0.000000e+00
    outer loop
      vertex   -5.201704e+01 -3.232666e+01 3.100000e+01
      vertex   4.749908e+01 -3.232666e+01 2.700000e+01
      vertex   4.749908e+01 -3.232666e+01 3.100000e+01
    endloop
  endfacet
  facet normal -1.000000e+00 -3.455913e-16 0.000000e+00
    outer loop
      vertex   -5.201704e+01 2.935396e+01 2.700000e+01
      vertex   -5.201704e+01 -3.232666e+01 2.700000e+01
      vertex   -5.201704e+01 2.935396e+01 3.100000e+01
    endloop
  endfacet
  facet normal -1.000000e+00 -3.455913e-16 0.000000e+00
    outer loop
      vertex   -5.201704e+01 2.935396e+01 3.100000e+01
      vertex   -5.201704e+01 -3.232666e+01 2.700000e+01
      vertex   -5.201704e+01 -3.232666e+01 3.100000e+01
    endloop
  endfacet
endsolid
